<?xml version="1.0" encoding="iso-8859-1"?>
<!-- Generator: Adobe Illustrator 16.0.0, SVG Export Plug-In . SVG Version: 6.00 Build 0)  -->
<!DOCTYPE svg PUBLIC "-//W3C//DTD SVG 1.1//EN" "http://www.w3.org/Graphics/SVG/1.1/DTD/svg11.dtd">
<svg version="1.1" id="Capa_1" xmlns="http://www.w3.org/2000/svg" xmlns:xlink="http://www.w3.org/1999/xlink" x="0px" y="0px"
	 width="394.268px" height="394.268px" viewBox="0 0 394.268 394.268" style="enable-background:new 0 0 394.268 394.268;"
	 xml:space="preserve">
<g>
	<path d="M0,111.218V283.05h394.268V111.218H0z M371.862,260.636H22.414V133.631h349.443v127.004H371.862z M118.841,232.227
		c3.817,4.19,8.496,7.43,13.902,9.619c5.323,2.145,11.274,3.239,17.69,3.239c6.562,0,12.539-1.067,17.752-3.185
		c5.299-2.156,9.95-5.406,13.822-9.664c3.743-4.076,6.675-9.18,8.725-15.189c1.989-5.877,3.009-12.564,3.009-19.886
		c0-7.32-0.999-13.997-2.941-19.836c-2.005-5.995-4.96-11.149-8.788-15.352c-3.759-4.102-8.391-7.314-13.743-9.511
		c-10.389-4.29-24.46-4.427-35.441-0.055c-5.507,2.203-10.192,5.434-13.956,9.609c-3.833,4.293-6.789,9.497-8.762,15.462
		c-1.931,5.821-2.918,12.443-2.918,19.688c0,7.359,0.998,14.03,2.954,19.841C112.146,222.945,115.071,228.077,118.841,232.227z
		 M134.296,175.246c3.898-4.733,9.193-7.037,16.197-7.037c6.927,0,12.201,2.304,16.111,7.05c4.083,4.947,6.159,12.315,6.159,21.902
		c0,9.675-2.091,17.045-6.203,21.909c-3.974,4.701-9.229,6.983-16.062,6.983c-6.845,0-12.107-2.282-16.096-6.983
		c-4.126-4.864-6.221-12.234-6.221-21.909C128.17,187.569,130.239,180.201,134.296,175.246z M222.547,243.361h-20.544v-92.46h20.544
		v35.951l33.445-35.951h26.516l-41.676,43.875l42.853,48.586h-26.983l-30.764-34.633l-3.391,3.617V243.361z"/>
</g>
<g>
</g>
<g>
</g>
<g>
</g>
<g>
</g>
<g>
</g>
<g>
</g>
<g>
</g>
<g>
</g>
<g>
</g>
<g>
</g>
<g>
</g>
<g>
</g>
<g>
</g>
<g>
</g>
<g>
</g>
</svg>
