<?xml version="1.0" encoding="iso-8859-1"?>
<!-- Generator: Adobe Illustrator 16.0.0, SVG Export Plug-In . SVG Version: 6.00 Build 0)  -->
<!DOCTYPE svg PUBLIC "-//W3C//DTD SVG 1.1//EN" "http://www.w3.org/Graphics/SVG/1.1/DTD/svg11.dtd">
<svg version="1.1" id="Capa_1" xmlns="http://www.w3.org/2000/svg" xmlns:xlink="http://www.w3.org/1999/xlink" x="0px" y="0px"
	 width="416.281px" height="416.281px" viewBox="0 0 416.281 416.281" style="enable-background:new 0 0 416.281 416.281;"
	 xml:space="preserve">
<g>
	<g>
		<path d="M357.32,66.021c-1.688-1.687-4.426-1.687-6.109,0.002l-28.525,28.526c-0.811,0.81-1.266,1.907-1.266,3.055
			c0,1.146,0.455,2.244,1.266,3.054c28.758,28.758,44.596,66.93,44.596,107.483c-0.002,40.556-15.838,78.728-44.596,107.481
			c-0.811,0.811-1.266,1.91-1.266,3.057c0,1.146,0.455,2.244,1.266,3.055l28.525,28.526c0.809,0.812,1.906,1.267,3.055,1.267
			c1.146-0.001,2.246-0.455,3.057-1.267c38.021-38.021,58.959-88.493,58.959-142.12C416.279,154.514,395.342,104.042,357.32,66.021z
			"/>
		<path d="M284.932,127.193c-1.031,0-2.02,0.409-2.752,1.141l-25.685,25.685c-0.729,0.729-1.14,1.719-1.14,2.751
			c0,1.032,0.41,2.022,1.14,2.751c13.009,13.01,20.175,30.275,20.175,48.62c0,18.346-7.166,35.611-20.175,48.62
			c-0.729,0.729-1.14,1.72-1.14,2.752c0,1.03,0.41,2.021,1.14,2.75l25.685,25.686c1.52,1.52,3.984,1.52,5.504,0
			c21.35-21.351,33.107-49.691,33.107-79.808c0-30.113-11.758-58.456-33.107-79.807
			C286.955,127.604,285.965,127.195,284.932,127.193z"/>
		<path d="M208.897,61.599c-2.777-1.427-6.123-1.18-8.662,0.641L74.358,152.478H8.332c-4.602,0-8.332,3.73-8.332,8.333v94.66
			c0,4.604,3.73,8.333,8.332,8.333h66.025l125.877,90.238c1.443,1.033,3.146,1.561,4.855,1.561c1.301,0,2.607-0.304,3.807-0.921
			c2.78-1.427,4.528-4.288,4.528-7.412V69.012C213.424,65.888,211.676,63.026,208.897,61.599z"/>
	</g>
</g>
<g>
</g>
<g>
</g>
<g>
</g>
<g>
</g>
<g>
</g>
<g>
</g>
<g>
</g>
<g>
</g>
<g>
</g>
<g>
</g>
<g>
</g>
<g>
</g>
<g>
</g>
<g>
</g>
<g>
</g>
</svg>
