<?xml version="1.0" encoding="iso-8859-1"?>
<!-- Generator: Adobe Illustrator 16.0.0, SVG Export Plug-In . SVG Version: 6.00 Build 0)  -->
<!DOCTYPE svg PUBLIC "-//W3C//DTD SVG 1.1//EN" "http://www.w3.org/Graphics/SVG/1.1/DTD/svg11.dtd">
<svg version="1.1" id="Capa_1" xmlns="http://www.w3.org/2000/svg" xmlns:xlink="http://www.w3.org/1999/xlink" x="0px" y="0px"
	 width="320.791px" height="320.792px" viewBox="0 0 320.791 320.792" style="enable-background:new 0 0 320.791 320.792;"
	 xml:space="preserve">
<g>
	<g>
		<path d="M284.932,79.449c-1.033,0-2.021,0.409-2.752,1.14l-25.686,25.685c-0.729,0.729-1.139,1.719-1.139,2.75
			c0,1.033,0.41,2.022,1.139,2.751c13.01,13.01,20.176,30.275,20.176,48.62s-7.166,35.611-20.176,48.62
			c-0.729,0.729-1.139,1.72-1.139,2.752c0,1.03,0.41,2.021,1.139,2.75l25.686,25.685c1.52,1.52,3.982,1.52,5.504,0
			c21.35-21.351,33.107-49.691,33.107-79.808c0-30.113-11.758-58.456-33.107-79.807C286.953,79.859,285.963,79.451,284.932,79.449z"
			/>
		<path d="M208.896,13.854c-2.777-1.427-6.123-1.18-8.662,0.64L74.357,104.732H8.332c-4.602,0-8.332,3.73-8.332,8.333v94.66
			c0,4.604,3.73,8.333,8.332,8.333h66.025l125.877,90.238c1.443,1.034,3.146,1.561,4.854,1.561c1.302,0,2.606-0.304,3.808-0.92
			c2.779-1.427,4.527-4.289,4.527-7.413V21.268C213.424,18.144,211.676,15.282,208.896,13.854z"/>
	</g>
</g>
<g>
</g>
<g>
</g>
<g>
</g>
<g>
</g>
<g>
</g>
<g>
</g>
<g>
</g>
<g>
</g>
<g>
</g>
<g>
</g>
<g>
</g>
<g>
</g>
<g>
</g>
<g>
</g>
<g>
</g>
</svg>
